<?xml version="1.0" encoding="utf-8"?>
<!-- Generator: Adobe Illustrator 22.1.0, SVG Export Plug-In . SVG Version: 6.00 Build 0)  -->
<svg version="1.1" id="Layer_1" xmlns="http://www.w3.org/2000/svg" xmlns:xlink="http://www.w3.org/1999/xlink" x="0px" y="0px"
	 viewBox="0 0 1246 120" style="enable-background:new 0 0 1246 120;" xml:space="preserve">
<g>
	<path d="M26.4,27.4c0-8-2.7-12-8.2-12c-1,0-2.1,0.1-3.4,0.3c-1.9,0.3-3.4,0.5-4.3,0.5c-3.3,0-5-1.7-5-5.1c0-3.7,2.4-5.6,7.2-5.6
		c0.5,0,1.2,0.1,2.1,0.2l8.5,1.1c3.2,0.4,6.6,0.6,10.2,0.6c3,0,6-0.2,9-0.5L53,5.7c2-0.2,4.7-0.3,8-0.3c9.7,0,17.8,1.4,24.3,4.2
		c8.5,3.6,15.3,9.9,20.3,18.9c5,9,7.4,19.4,7.4,31.2c0,10.5-2,19.9-5.9,28.3c-4,8.4-9.3,14.5-16.2,18.5c-8.2,4.8-18.1,7.2-29.8,7.2
		c-2.3,0-4.8-0.1-7.2-0.3l-11-1c-3.7-0.3-7.6-0.5-11.7-0.5c-3.5,0-6.4,0.2-8.6,0.5l-7.7,1.1c-0.2,0-0.6,0.1-1.1,0.2
		c-0.5,0-1,0-1.3,0c-4.6,0-6.9-1.9-6.9-5.6c0-1.5,0.5-2.7,1.4-3.8c1-1,2.1-1.5,3.5-1.5c1.2,0,2.6,0.2,4.3,0.5
		c0.7,0.2,1.9,0.3,3.4,0.3c5.4,0,8.2-4,8.2-12V27.4z M39.9,25.7v67.5c0,4.9,2.4,7.9,7.2,8.9c1.6,0.4,6.1,0.6,13.4,0.6
		c12.8,0,22.1-3.5,27.9-10.4c6.9-8.3,10.4-19.2,10.4-32.9c0-10.6-2.1-19.6-6.3-27c-4.2-7.4-10-12.2-17.4-14.3
		c-4.7-1.4-10.4-2.1-17-2.1c-8.4,0-13.6,0.5-15.5,1.4C40.8,18.5,39.9,21.3,39.9,25.7z"/>
	<path d="M201.2,94.8l-5.8-15.7c-0.6-1.7-1.3-2.8-2-3.2c-0.7-0.4-2.1-0.6-4.2-0.6h-28.5c-2.1,0-3.6,0.4-4.4,1.1
		c-0.8,0.7-1.8,2.8-3.1,6.1l-4.6,12.3c-0.4,1.2-0.6,2.3-0.6,3.4c0,3.4,2.1,5.1,6.2,5.1c1.1,0,2.6-0.1,4.6-0.3c2-0.2,3.4-0.3,4.4-0.3
		c4.4,0,6.6,1.9,6.6,5.6c0,3.5-2.4,5.3-7.2,5.3c-0.9,0-2-0.1-3.5-0.3l-8-1c-1.5-0.2-4-0.3-7.4-0.3c-3.7,0-6.4,0.1-7.8,0.3L129,113
		c-3,0.4-5.2,0.5-6.6,0.5c-4.2,0-6.2-1.8-6.2-5.3c0-3.7,2-5.6,6.1-5.6c0.9,0,1.5,0.2,1.9,0.6h2.1c2.9,0,5.1-1.1,6.6-3.4
		c0.6-0.9,1.7-3.4,3.2-7.6l29.8-80.8c1.7-4.5,5.1-6.7,10.1-6.7c4.9,0,8.2,2.2,9.8,6.7l28.7,79.4c1.8,5,3.5,8.3,5,9.9
		c1.5,1.6,3.6,2.4,6.4,2.4c0.9,0,1.5-0.1,1.9-0.2l4.5-0.4c4.1,0,6.1,1.8,6.1,5.3c0,3.7-2,5.6-6.1,5.6c-1.2,0-2.7-0.1-4.6-0.4
		c-6.7-0.8-11.7-1.2-15.1-1.2c-4,0-10.4,0.4-19.2,1.3c-2.2,0.2-4,0.3-5.1,0.3c-4.3,0-6.4-1.8-6.4-5.4c0-3.6,2.3-5.4,7-5.4
		c1,0,2.4,0.1,4.2,0.3c1.9,0.2,3.3,0.3,4.2,0.3c3.5,0,5.3-1.4,5.3-4.3C202.5,98.5,202.1,97.1,201.2,94.8z M189.7,62.1l-14.4-44.2
		l-14.7,44.2c-0.2,0.6-0.3,1-0.3,1.1c0,1,0.8,1.4,2.4,1.4h25.5c1.3,0,1.9-0.4,1.9-1.3C190,63.2,189.9,62.7,189.7,62.1z"/>
	<path d="M294.7,12.6l43,89.5V37.6c0-8.3-0.1-12.9-0.2-13.8c-1-5.5-3.6-8.3-8-8.3c-0.9,0-2.1,0.1-3.8,0.4c-1.7,0.3-3,0.4-3.8,0.4
		c-1.4,0-2.6-0.5-3.6-1.5c-1-1-1.5-2.2-1.5-3.6c0-3.8,2.4-5.8,7.2-5.8c1,0,1.7,0.1,2.1,0.2l7.2,1c3.2,0.4,6.2,0.6,9,0.6
		c2.8,0,6.5-0.3,11-0.9c1.6-0.2,3.5-0.4,5.6-0.7c0.2,0,0.6,0,1.1-0.1c0.4,0,0.8,0,1.1,0c4.6,0,6.9,1.8,6.9,5.5
		c0,3.6-2.2,5.4-6.5,5.4c-0.8,0-1.4,0-1.8,0H358c-3.3,0-5.4,0.7-6.4,2.1c-1,1.4-1.6,4.4-1.8,9.1v9.1v16.3v42.7
		c0,7.4-0.8,12.5-2.5,15.5c-1.7,3-4.5,4.5-8.6,4.5c-5.3,0-9.7-3.7-13.4-11.2l-42.2-87.3v74.5c0,8,2.7,12,8.2,12
		c0.9,0,2.1-0.1,3.8-0.2c1.7-0.2,3-0.2,3.8-0.2c3.4,0,5.1,1.7,5.1,5.1c0,3.6-2.4,5.4-7.2,5.4c-0.2,0-0.5,0-1,0
		c-0.5-0.1-0.9-0.2-1.1-0.2l-6.6-1c-3.6-0.5-7-0.8-10.2-0.8c-2.8,0-6.4,0.3-10.7,0.8l-7.8,1c-0.2,0-0.6,0.1-1.1,0.2
		c-0.5,0-1,0-1.3,0c-4.6,0-6.9-1.9-6.9-5.6c0-3.3,1.7-5,5.1-5c0.5,0,2,0.1,4.3,0.3c1.2,0.3,2.3,0.5,3.4,0.5c5.4,0,8.2-4,8.2-12V80.7
		V66.6V52.8V27.5c0-8-2.8-12-8.3-12c-0.7,0-1.8,0.1-3.2,0.3c-2,0.3-3.5,0.5-4.5,0.5c-3.4,0-5.1-1.8-5.1-5.3c0-3.7,2.3-5.6,6.9-5.6
		c0.6,0,1.5,0.1,2.6,0.2c5.3,0.5,9.4,0.8,12.3,0.8c1.6,0,4-0.2,7.2-0.5c3.2-0.3,5.6-0.5,7.2-0.5c3.3,0,5.5,1.1,6.6,3.4L294.7,12.6z"
		/>
	<path d="M453.4,94.8l-5.8-15.7c-0.6-1.7-1.3-2.8-2-3.2c-0.7-0.4-2.1-0.6-4.2-0.6h-28.5c-2.1,0-3.6,0.4-4.4,1.1
		c-0.8,0.7-1.8,2.8-3.1,6.1l-4.6,12.3c-0.4,1.2-0.6,2.3-0.6,3.4c0,3.4,2.1,5.1,6.2,5.1c1.1,0,2.6-0.1,4.6-0.3c2-0.2,3.4-0.3,4.4-0.3
		c4.4,0,6.6,1.9,6.6,5.6c0,3.5-2.4,5.3-7.2,5.3c-0.9,0-2-0.1-3.5-0.3l-8-1c-1.5-0.2-4-0.3-7.4-0.3c-3.7,0-6.4,0.1-7.8,0.3l-6.7,0.8
		c-3,0.4-5.2,0.5-6.6,0.5c-4.2,0-6.2-1.8-6.2-5.3c0-3.7,2-5.6,6.1-5.6c0.9,0,1.5,0.2,1.9,0.6h2.1c2.9,0,5.1-1.1,6.6-3.4
		c0.6-0.9,1.7-3.4,3.2-7.6L418,11.5c1.7-4.5,5.1-6.7,10.1-6.7c4.9,0,8.2,2.2,9.8,6.7l28.7,79.4c1.8,5,3.5,8.3,5,9.9
		c1.5,1.6,3.6,2.4,6.4,2.4c0.9,0,1.5-0.1,1.9-0.2l4.5-0.4c4.1,0,6.1,1.8,6.1,5.3c0,3.7-2,5.6-6.1,5.6c-1.2,0-2.7-0.1-4.6-0.4
		c-6.7-0.8-11.7-1.2-15.1-1.2c-4,0-10.4,0.4-19.2,1.3c-2.2,0.2-4,0.3-5.1,0.3c-4.3,0-6.4-1.8-6.4-5.4c0-3.6,2.3-5.4,7-5.4
		c1,0,2.4,0.1,4.2,0.3c1.9,0.2,3.3,0.3,4.2,0.3c3.5,0,5.3-1.4,5.3-4.3C454.7,98.5,454.3,97.1,453.4,94.8z M441.9,62.1l-14.4-44.2
		l-14.7,44.2c-0.2,0.6-0.3,1-0.3,1.1c0,1,0.8,1.4,2.4,1.4h25.5c1.3,0,1.9-0.4,1.9-1.3C442.2,63.2,442.1,62.7,441.9,62.1z"/>
	<path d="M572.5,77.2c0-1.7,0.7-3.1,2.2-4.3c-1-0.5-1.8-0.8-2.4-0.8c-2.3,0-4.4,1.3-6.2,3.8c-1.8,2.5-2.6,5.4-2.6,8.7
		c0,5.9,2.3,10.7,6.9,14.6c4.6,3.8,10.5,5.8,17.6,5.8c16.1,0,25.1-7.3,26.9-21.8c0.7-6.1,1.1-14.5,1.1-25.1v-5.1V27.4
		c0-7.9-2.7-11.8-8.2-11.8c-1.5,0-2.6,0.1-3.4,0.3c-1.7,0.3-3.2,0.5-4.4,0.5c-1.4,0-2.6-0.5-3.5-1.5c-1-1-1.5-2.3-1.5-3.8
		c0-3.7,2.3-5.6,7-5.6c0.6,0,1.4,0.1,2.2,0.2l8.5,1.1c3.2,0.4,6.5,0.6,9.9,0.6c3.2,0,6.8-0.3,10.9-0.8l7.4-1
		c0.4-0.1,1.2-0.2,2.2-0.2c4.7,0,7,1.9,7,5.6c0,3.5-1.7,5.3-5.1,5.3c-1.1,0-2.5-0.2-4.3-0.5c-0.7-0.2-1.9-0.3-3.4-0.3
		c-5.4,0-8.2,4-8.2,11.8v30.6c0,16-0.6,26.7-1.9,32.2c-1.2,4.8-3.6,9.2-7.2,13.3c-7.8,8.6-18.4,13-31.7,13
		c-11.2,0-20.3-2.9-27.3-8.7c-7-5.8-10.5-13.3-10.5-22.5c0-6.8,2.2-12.6,6.5-17.2c4.3-4.6,9.7-7,16.1-7c4.6,0,8.3,1.2,11.2,3.6
		s4.3,5.5,4.3,9.4c0,2.7-0.9,5-2.6,7c-1.7,2-3.7,3-6.1,3c-2,0-3.8-0.7-5.4-2C573.2,80.5,572.5,79,572.5,77.2z"/>
	<path d="M803,30.7l13.1,67.7l16.5-83.3c1.4-7.3,5-10.9,10.7-10.9c6.1,0,9.7,3.2,10.9,9.6l16,85.7l13.6-66.4c1-4.7,1.4-8.3,1.4-10.7
		c0-4.4-2.2-6.6-6.7-6.6c-1,0-2.3,0.1-4.2,0.3c-1.8,0.2-3.2,0.3-4.2,0.3c-4.6,0-6.9-1.9-6.9-5.6c0-3.6,2.2-5.4,6.7-5.4
		c1.7,0,3.5,0.1,5.3,0.3c8.8,1.1,14.5,1.6,17.3,1.6c2.1,0,5.3-0.3,9.5-1c4.2-0.6,7.4-1,9.5-1c3.9,0,5.9,1.9,5.9,5.8
		c0,3.5-1.9,5.3-5.8,5.3c-0.6,0-1.6-0.1-2.9-0.4c-1.3-0.3-2.2-0.4-2.9-0.4c-2.2,0-3.9,0.9-4.9,2.6c-1,1.7-2.2,5.6-3.6,11.5
		l-17.9,76.4c-1.4,5.9-4.7,8.8-9.9,8.8c-5.6,0-9-3.6-10.4-10.9l-16.2-84.7l-17.8,86.9c-1.2,5.8-4.2,8.6-9.1,8.6
		c-5,0-8.2-2.9-9.6-8.8l-19.1-79.7c-1-4.1-2.2-6.8-3.6-8.2c-1.4-1.4-3.7-2.2-6.8-2.2h-1.1l-3.5,0.5c-3.4,0-5.1-1.8-5.1-5.4
		c0-3.8,1.9-5.7,5.6-5.7c1.5,0,3.2,0.2,5.1,0.5c5.8,1,11.4,1.4,16.8,1.4c2.6,0,8.4-0.5,17.6-1.6c1.6-0.2,3.1-0.3,4.6-0.3
		c3.8,0,5.8,1.8,5.8,5.3c0,3.8-2.3,5.8-7,5.8c-1,0-2.4-0.1-4.4-0.3c-2-0.2-3.4-0.3-4.4-0.3c-3.7,0-5.6,1.8-5.6,5.3
		c0,1.3,0.2,2.8,0.5,4.5L803,30.7z"/>
	<path d="M684.7,27.4c0-7.9-2.7-11.8-8.2-11.8c-1.5,0-2.6,0.1-3.4,0.3c-1.7,0.3-3.2,0.5-4.3,0.5c-1.4,0-2.6-0.5-3.5-1.5
		c-1-1-1.4-2.3-1.4-3.8c0-3.7,2.2-5.6,6.7-5.6c0.1,0,0.9,0.1,2.4,0.2c16,1.1,23.4,1.6,22.3,1.6h1.6l38.5-1.1c0.7,0,3.5-0.2,8.3-0.5
		c1.7-0.1,3.2-0.2,4.6-0.2c5.5,0,8.3,2.5,8.3,7.4c0,0.9-0.2,3.6-0.5,8.2c-0.2,3.4-0.3,6.6-0.3,9.4c0,3.7,0.1,6.4,0.3,7.8
		c0.4,3.1,0.5,5.4,0.5,6.9c0,4.1-1.9,6.1-5.7,6.1c-3.8,0-5.7-2.8-5.7-8.5v-8.3c0-9-1.9-14.2-5.6-15.9c-2.8-1.2-9.9-1.8-21.5-1.8
		c-7.6,0-12.1,0.2-13.4,0.5c-4.6,1.2-6.9,4.4-6.9,9.6v7.2c0,0.9,0,2,0,3.5c0,1.5,0,2.6,0,3.2v2.1c0,4.3,0.9,6.7,2.8,7.4
		c0.7,0.2,2,0.3,3.8,0.3h6.5c6.6,0,9.9-2.3,9.9-6.9c0-1.3-0.1-2.9-0.4-5c-0.3-2-0.4-3.8-0.4-5.4c0-4.3,1.9-6.4,5.7-6.4
		c3.8,0,5.7,2.3,5.7,6.9c0,0.9-0.3,4.2-1,9.9c-0.6,4.9-0.9,9.2-0.9,13c0,2.1,0.2,5.9,0.6,11.4c0.1,0.9,0.4,2.7,0.8,5.6
		c0.3,2.3,0.5,4.2,0.5,5.6c0,3.8-1.9,5.8-5.8,5.8c-3.7,0-5.6-2.2-5.6-6.7c0-1.2,0.1-2.9,0.4-5.1c0.3-2.2,0.4-3.9,0.4-5.1
		c0-4.6-3-6.9-9.1-6.9h-7.2c-3.1,0-5,0.5-5.7,1.6c-0.7,1.1-1,3.4-1,6.9v9.9c0,1.7,0.1,4,0.2,6.9c0.1,3.5,0.2,5.9,0.2,7
		c0.1,4.3,1,6.9,2.6,8c1.2,0.7,3.9,1.1,8.3,1.1h21.8c6.3,0,10.6-0.9,13-2.8c2.3-1.9,3.5-5.4,3.5-10.5c0-1.6-0.1-4-0.2-7.1
		c-0.2-3.1-0.2-5.5-0.2-7.1c0-4.8,1.9-7.2,5.7-7.2c4,0,6,2.5,6,7.4c0,1.9-0.1,4.9-0.2,8.8c-0.2,4-0.2,6.9-0.2,8.8
		c0,1.5,0.1,3.7,0.2,6.6c0.2,2.9,0.2,5.2,0.2,6.6c0,5-2.5,7.5-7.4,7.5c-1.2,0-3-0.1-5.6-0.3c-1.3-0.1-3.6-0.2-7-0.2
		c0.7,0-3.4-0.1-12.5-0.3c-9.1-0.2-16.9-0.3-23.5-0.3c-10,0-19.9,0.3-29.5,1c-0.4,0-0.9,0.1-1.4,0.2c-0.5,0-0.9,0-1,0
		c-4.5,0-6.7-1.9-6.7-5.8c0-3.4,1.7-5.1,5-5.1c0.5,0,2,0.1,4.3,0.3c1.2,0.3,2.3,0.5,3.4,0.5c5.4,0,8.2-4,8.2-12V27.4z"/>
	<path d="M948.7,27.4c0-7.9-2.7-11.8-8.2-11.8c-1.5,0-2.6,0.1-3.4,0.3c-1.7,0.3-3.2,0.5-4.3,0.5c-1.4,0-2.6-0.5-3.5-1.5
		c-1-1-1.4-2.3-1.4-3.8c0-3.7,2.2-5.6,6.7-5.6c0.1,0,0.9,0.1,2.4,0.2c16,1.1,23.4,1.6,22.3,1.6h1.6l38.5-1.1c0.7,0,3.5-0.2,8.3-0.5
		c1.7-0.1,3.2-0.2,4.6-0.2c5.5,0,8.3,2.5,8.3,7.4c0,0.9-0.2,3.6-0.5,8.2c-0.2,3.4-0.3,6.6-0.3,9.4c0,3.7,0.1,6.4,0.3,7.8
		c0.4,3.1,0.5,5.4,0.5,6.9c0,4.1-1.9,6.1-5.7,6.1c-3.8,0-5.7-2.8-5.7-8.5v-8.3c0-9-1.9-14.2-5.6-15.9c-2.8-1.2-9.9-1.8-21.5-1.8
		c-7.6,0-12.1,0.2-13.4,0.5c-4.6,1.2-6.9,4.4-6.9,9.6v7.2c0,0.9,0,2,0,3.5c0,1.5,0,2.6,0,3.2v2.1c0,4.3,0.9,6.7,2.8,7.4
		c0.7,0.2,2,0.3,3.8,0.3h6.5c6.6,0,9.9-2.3,9.9-6.9c0-1.3-0.1-2.9-0.4-5c-0.3-2-0.4-3.8-0.4-5.4c0-4.3,1.9-6.4,5.7-6.4
		c3.8,0,5.7,2.3,5.7,6.9c0,0.9-0.3,4.2-1,9.9c-0.6,4.9-0.9,9.2-0.9,13c0,2.1,0.2,5.9,0.6,11.4c0.1,0.9,0.4,2.7,0.8,5.6
		c0.3,2.3,0.5,4.2,0.5,5.6c0,3.8-1.9,5.8-5.8,5.8c-3.7,0-5.6-2.2-5.6-6.7c0-1.2,0.1-2.9,0.4-5.1c0.3-2.2,0.4-3.9,0.4-5.1
		c0-4.6-3-6.9-9.1-6.9h-7.2c-3.1,0-5,0.5-5.7,1.6c-0.7,1.1-1,3.4-1,6.9v9.9c0,1.7,0.1,4,0.2,6.9c0.1,3.5,0.2,5.9,0.2,7
		c0.1,4.3,1,6.9,2.6,8c1.2,0.7,3.9,1.1,8.3,1.1h21.8c6.3,0,10.6-0.9,13-2.8c2.3-1.9,3.5-5.4,3.5-10.5c0-1.6-0.1-4-0.2-7.1
		c-0.2-3.1-0.2-5.5-0.2-7.1c0-4.8,1.9-7.2,5.7-7.2c4,0,6,2.5,6,7.4c0,1.9-0.1,4.9-0.2,8.8c-0.2,4-0.2,6.9-0.2,8.8
		c0,1.5,0.1,3.7,0.2,6.6c0.2,2.9,0.2,5.2,0.2,6.6c0,5-2.5,7.5-7.4,7.5c-1.2,0-3-0.1-5.6-0.3c-1.3-0.1-3.6-0.2-7-0.2
		c0.7,0-3.4-0.1-12.5-0.3c-9.1-0.2-16.9-0.3-23.5-0.3c-10,0-19.9,0.3-29.5,1c-0.4,0-0.9,0.1-1.4,0.2c-0.5,0-0.9,0-1,0
		c-4.5,0-6.7-1.9-6.7-5.8c0-3.4,1.7-5.1,5-5.1c0.5,0,2,0.1,4.3,0.3c1.2,0.3,2.3,0.5,3.4,0.5c5.4,0,8.2-4,8.2-12V27.4z"/>
	<path d="M1073.8,89.4c0,6.3,0.6,10,1.9,11.1c1,1,2.2,1.5,3.8,1.8c1.5,0.2,5,0.3,10.5,0.3h14.1c7.4,0,12.3-1,14.7-2.9
		c2.5-1.9,3.7-5.9,3.7-11.8c0-1.6-0.1-3.4-0.2-5.5c-0.2-4.1-0.3-6.6-0.3-7.4c0-4.6,1.9-6.9,5.6-6.9c4.5,0,6.7,2.1,6.7,6.4
		c0,1.3-0.1,2.3-0.2,3l-1.1,8.2c-0.3,2.3-0.5,4.8-0.5,7.4c0,1.5,0.1,3.7,0.4,6.6c0.3,2.9,0.4,5.2,0.4,6.6c0,4.8-2.7,7.2-8.2,7.2
		c-1.1,0-3.5-0.2-7.4-0.6c-2.6-0.2-6.5-0.4-11.8-0.6h-12h-25.6c-2.6,0-6.8,0.2-12.8,0.6c-0.9,0-2.3,0.1-4.4,0.2
		c-2.1,0.2-3.7,0.2-4.9,0.2c-4.5,0-6.7-1.9-6.7-5.8c0-3.4,1.7-5.1,5-5.1c0.9,0,2.1,0.2,3.8,0.5c1.7,0.3,3,0.5,3.8,0.5
		c5.4,0,8.2-4,8.2-12V27.4c0-7.9-2.7-11.8-8.2-11.8c-1.5,0-2.6,0.1-3.4,0.3c-1.7,0.3-3.2,0.5-4.3,0.5c-1.4,0-2.6-0.5-3.5-1.5
		c-1-1-1.4-2.3-1.4-3.8c0-3.7,2.3-5.6,6.9-5.6c0.6,0,1.4,0.1,2.4,0.2l8.5,1c4.7,0.5,8.2,0.8,10.4,0.8c2.8,0,6.2-0.3,10.2-0.8l7.4-1
		c0.9-0.1,1.5-0.2,2.1-0.2c4.8,0,7.2,1.9,7.2,5.6c0,1.5-0.5,2.7-1.4,3.8c-1,1-2.1,1.5-3.5,1.5c-1.1,0-2.5-0.2-4.3-0.5
		c-0.7-0.2-1.9-0.3-3.4-0.3c-5.4,0-8.2,3.9-8.2,11.8V89.4z"/>
	<path d="M1180.7,89.4c0,6.3,0.6,10,1.9,11.1c1,1,2.2,1.5,3.8,1.8c1.5,0.2,5,0.3,10.5,0.3h14.1c7.4,0,12.3-1,14.7-2.9
		c2.5-1.9,3.7-5.9,3.7-11.8c0-1.6-0.1-3.4-0.2-5.5c-0.2-4.1-0.3-6.6-0.3-7.4c0-4.6,1.9-6.9,5.6-6.9c4.5,0,6.7,2.1,6.7,6.4
		c0,1.3-0.1,2.3-0.2,3l-1.1,8.2c-0.3,2.3-0.5,4.8-0.5,7.4c0,1.5,0.1,3.7,0.4,6.6c0.3,2.9,0.4,5.2,0.4,6.6c0,4.8-2.7,7.2-8.2,7.2
		c-1.1,0-3.5-0.2-7.4-0.6c-2.6-0.2-6.5-0.4-11.8-0.6h-12h-25.6c-2.6,0-6.8,0.2-12.8,0.6c-0.9,0-2.3,0.1-4.4,0.2
		c-2.1,0.2-3.7,0.2-4.9,0.2c-4.5,0-6.7-1.9-6.7-5.8c0-3.4,1.7-5.1,5-5.1c0.9,0,2.1,0.2,3.8,0.5c1.7,0.3,3,0.5,3.8,0.5
		c5.4,0,8.2-4,8.2-12V27.4c0-7.9-2.7-11.8-8.2-11.8c-1.5,0-2.6,0.1-3.4,0.3c-1.7,0.3-3.2,0.5-4.3,0.5c-1.4,0-2.6-0.5-3.5-1.5
		c-1-1-1.4-2.3-1.4-3.8c0-3.7,2.3-5.6,6.9-5.6c0.6,0,1.4,0.1,2.4,0.2l8.5,1c4.7,0.5,8.2,0.8,10.4,0.8c2.8,0,6.2-0.3,10.2-0.8l7.4-1
		c0.9-0.1,1.5-0.2,2.1-0.2c4.8,0,7.2,1.9,7.2,5.6c0,1.5-0.5,2.7-1.4,3.8c-1,1-2.1,1.5-3.5,1.5c-1.1,0-2.5-0.2-4.3-0.5
		c-0.7-0.2-1.9-0.3-3.4-0.3c-5.4,0-8.2,3.9-8.2,11.8V89.4z"/>
</g>
</svg>
